<svg width="79" height="89" viewBox="0 0 79 89" fill="none" xmlns="http://www.w3.org/2000/svg">
<path fill-rule="evenodd" clip-rule="evenodd" d="M74.3176 22.5486L21.0748 2.19629C20.7762 2.0602 20.419 1.99164 20.0565 2.00081L19.5938 2.17323L6.7133 7.094L58.9402 27.0531C62.3171 28.6084 64.3546 31.1459 64.4128 33.8687V66.0693C64.4515 66.2072 64.4515 66.3487 64.4128 66.4866V75.4809L77.121 70.6292C77.1902 70.6029 77.2617 70.5794 77.3352 70.5588L77.6944 70.419C77.9234 70.1494 78.0276 69.841 77.9937 69.5324V27.3137C77.9325 25.437 76.5784 23.6818 74.3176 22.5486ZM60.5858 76.9412C60.7801 76.6763 60.869 76.3828 60.8445 76.0886V33.8687C60.7787 31.9896 59.4205 30.2331 57.1561 29.0989L3.91849 8.75357C3.64034 8.63824 3.32545 8.56755 2.99861 8.54715C2.94669 8.55095 2.89566 8.55899 2.84678 8.57107L2.58933 8.66938C2.14741 9.05681 1.94206 9.54017 2.01413 10.0233V52.242C2.05891 53.6811 3.09298 55.0279 4.82285 55.9001L5.37057 56.1094L5.37682 56.1112L59.266 76.7055L59.2695 76.7074L59.8199 76.9178C59.9718 76.9835 60.1432 77.027 60.3225 77.0452L60.5858 76.9412ZM58.7398 56.6946C58.8872 57.8812 58.0585 59.0286 56.5705 59.6977C56.0114 59.9103 55.3773 60.0209 54.7325 60.0183C53.8972 60.0089 53.0805 59.8537 52.3647 59.5685L8.70989 42.8859C5.87958 41.5869 4.17005 39.4637 4.11885 37.1843V14.649C4.01555 13.713 4.68459 12.8132 5.86816 12.2964C6.94309 11.9109 8.24994 11.9437 9.27777 12.3818L55.3632 29.9927C57.4535 30.9307 58.7154 32.4878 58.7398 34.1593V56.6946ZM7.69759 14.5048L53.5791 32.0385C54.5554 32.556 55.1379 33.3317 55.1716 34.1593V56.6948C55.1716 57.3071 54.9118 57.6046 54.7848 57.6519C54.7568 57.6657 54.5495 57.6749 54.1488 57.5227L10.494 40.84C8.76555 39.9681 7.7322 38.6222 7.68707 37.1842V14.6489C7.68671 14.6008 7.6901 14.5526 7.69759 14.5048ZM24.4653 54.003C23.9724 54.5677 22.8814 54.7613 22.0279 54.4354L5.0109 47.9324C4.15791 47.6061 3.86586 46.8841 4.35845 46.3193C4.85087 45.7546 5.94167 45.5609 6.795 45.8866L23.812 52.3896C24.222 52.5462 24.5212 52.8041 24.6438 53.1067C24.7663 53.4093 24.7021 53.7317 24.4653 54.003ZM13.1195 54.9475C12.6265 55.5122 11.5357 55.7057 10.682 55.3799L5.01091 53.2119C4.15792 52.8856 3.86586 52.1636 4.35846 51.5988C4.85087 51.0341 5.94167 50.8404 6.79501 51.1661L12.4661 53.3341C12.8761 53.4907 13.1753 53.7486 13.2979 54.0512C13.4205 54.3538 13.3562 54.6762 13.1195 54.9475ZM9.90685 69.687C7.6735 68.5669 6.334 66.8337 6.26888 64.9794V59.1803L56.5898 78.411V85.5739C56.6703 86.0574 56.4576 86.5423 55.9984 86.922L55.8535 86.9797C55.4632 87.035 55.0558 86.9762 54.736 86.8183L50.2321 85.0971V79.366C50.2321 78.7139 49.4334 78.1851 48.448 78.1851C47.4627 78.1851 46.6639 78.7139 46.6639 79.366V83.7336L44.5592 82.9293V77.198C44.5592 76.5458 43.7605 76.0171 42.7751 76.0171C41.7898 76.0171 40.991 76.5458 40.991 77.198V81.5657L38.8863 80.7614V75.0299C38.8863 74.3777 38.0876 73.849 37.1022 73.849C36.1168 73.849 35.3181 74.3777 35.3181 75.0299V79.3978L33.2134 78.5936V72.8618C33.2134 72.2097 32.4146 71.6809 31.4293 71.6809C30.4441 71.6809 29.6452 72.2097 29.6452 72.8618V77.2299L27.5406 76.4257V70.6938C27.5406 70.0415 26.7417 69.5128 25.7565 69.5128C24.7712 69.5128 23.9724 70.0415 23.9724 70.6938V75.0621L21.8677 74.2577V68.5268C21.8677 67.8747 21.0688 67.3459 20.0836 67.3459C19.0983 67.3459 18.2995 67.8747 18.2995 68.5268V72.8943L16.1948 72.0899V66.3587C16.1948 65.7065 15.3961 65.1778 14.4107 65.1778C13.4253 65.1778 12.6266 65.7065 12.6266 66.3587V70.7264L9.90685 69.687ZM58.7398 71.6994C58.7396 72.1212 58.3996 72.5111 57.8476 72.722C57.2958 72.933 56.6157 72.9331 56.0637 72.7223L46.1378 68.9282C45.5856 68.7171 45.2455 68.3272 45.2457 67.9053V62.3132C45.2455 61.8912 45.5856 61.5013 46.1376 61.2904C46.6896 61.0794 47.3697 61.0794 47.9219 61.2903L57.8478 65.0844C58.3998 65.2955 58.74 65.6854 58.7398 66.1073V71.6994ZM48.8136 67.2233L55.1722 69.6536V66.7887L48.8136 64.3596V67.2233ZM62.2418 79.0928C62.3694 79.0323 62.4913 78.9665 62.6062 78.8958C62.667 78.875 62.7582 78.8439 62.7801 78.8355L73.7356 74.6498V79.0246C73.8062 79.4889 73.6228 79.9547 73.2187 80.3371L72.8245 80.4871C72.775 80.5019 72.7269 80.5185 72.6799 80.5366L60.158 85.3269V79.3899C60.2394 79.3932 60.323 79.4134 60.4037 79.4134C60.5398 79.4069 60.6752 79.3955 60.8094 79.3794C60.829 79.3797 60.8456 79.3868 60.8654 79.3868C61.1871 79.387 61.5027 79.3292 61.7783 79.2196L61.785 79.217C61.9414 79.1827 62.0941 79.1412 62.2418 79.0928Z" fill="#2EFF54"/>
</svg>
