<svg width="129" height="128" viewBox="0 0 129 128" fill="none" xmlns="http://www.w3.org/2000/svg">
<path d="M126.5 64C126.5 97.9472 98.76 125.5 64.5 125.5C30.24 125.5 2.5 97.9472 2.5 64C2.5 30.0528 30.24 2.5 64.5 2.5C98.76 2.5 126.5 30.0528 126.5 64Z" fill="#1E1E1E" stroke="#28FF50" stroke-width="5"/>
<path fill-rule="evenodd" clip-rule="evenodd" d="M99.3176 42.5486L46.0748 22.1963C45.7762 22.0602 45.419 21.9916 45.0565 22.0008L44.5938 22.1732L31.7133 27.094L83.9402 47.0531C87.3171 48.6084 89.3546 51.1459 89.4128 53.8687V86.0693C89.4515 86.2072 89.4515 86.3487 89.4128 86.4866V95.4809L102.121 90.6292C102.19 90.6029 102.262 90.5794 102.335 90.5588L102.694 90.419C102.923 90.1494 103.028 89.841 102.994 89.5324V47.3137C102.933 45.437 101.578 43.6818 99.3176 42.5486ZM85.5858 96.9412C85.7801 96.6763 85.869 96.3828 85.8445 96.0886V53.8687C85.7787 51.9896 84.4205 50.2331 82.1561 49.0989L28.9185 28.7536C28.6403 28.6382 28.3255 28.5676 27.9986 28.5471C27.9467 28.551 27.8957 28.559 27.8468 28.5711L27.5893 28.6694C27.1474 29.0568 26.9421 29.5402 27.0141 30.0233V72.242C27.0589 73.6811 28.093 75.0279 29.8229 75.9001L30.3706 76.1094L30.3768 76.1112L84.266 96.7055L84.2695 96.7074L84.8199 96.9178C84.9718 96.9835 85.1432 97.027 85.3225 97.0452L85.5858 96.9412ZM83.7398 76.6946C83.8872 77.8812 83.0585 79.0286 81.5705 79.6977C81.0114 79.9103 80.3773 80.0209 79.7325 80.0183C78.8972 80.0089 78.0805 79.8537 77.3647 79.5685L33.7099 62.8859C30.8796 61.5869 29.1701 59.4637 29.1188 57.1843V34.649C29.0155 33.713 29.6846 32.8132 30.8682 32.2964C31.9431 31.9109 33.2499 31.9437 34.2778 32.3818L80.3632 49.9927C82.4535 50.9307 83.7154 52.4878 83.7398 54.1593V76.6946ZM32.6976 34.5048L78.5791 52.0385C79.5554 52.556 80.1379 53.3317 80.1716 54.1593V76.6948C80.1716 77.3071 79.9118 77.6046 79.7848 77.6519C79.7568 77.6657 79.5495 77.6749 79.1488 77.5227L35.494 60.84C33.7656 59.9681 32.7322 58.6222 32.6871 57.1842V34.6489C32.6867 34.6008 32.6901 34.5526 32.6976 34.5048ZM49.4653 74.003C48.9724 74.5677 47.8814 74.7613 47.0279 74.4354L30.0109 67.9324C29.1579 67.6061 28.8659 66.8841 29.3585 66.3193C29.8509 65.7546 30.9417 65.5609 31.795 65.8866L48.812 72.3896C49.222 72.5462 49.5212 72.8041 49.6438 73.1067C49.7663 73.4093 49.7021 73.7317 49.4653 74.003ZM38.1195 74.9475C37.6265 75.5122 36.5357 75.7057 35.682 75.3799L30.0109 73.2119C29.1579 72.8856 28.8659 72.1636 29.3585 71.5988C29.8509 71.0341 30.9417 70.8404 31.795 71.1661L37.4661 73.3341C37.8761 73.4907 38.1753 73.7486 38.2979 74.0512C38.4205 74.3538 38.3562 74.6762 38.1195 74.9475ZM34.9068 89.687C32.6735 88.5669 31.334 86.8337 31.2689 84.9794V79.1803L81.5898 98.411V105.574C81.6703 106.057 81.4576 106.542 80.9984 106.922L80.8535 106.98C80.4632 107.035 80.0558 106.976 79.736 106.818L75.2321 105.097V99.366C75.2321 98.7139 74.4334 98.1851 73.448 98.1851C72.4627 98.1851 71.6639 98.7139 71.6639 99.366V103.734L69.5592 102.929V97.198C69.5592 96.5458 68.7605 96.0171 67.7751 96.0171C66.7898 96.0171 65.991 96.5458 65.991 97.198V101.566L63.8863 100.761V95.0299C63.8863 94.3777 63.0876 93.849 62.1022 93.849C61.1168 93.849 60.3181 94.3777 60.3181 95.0299V99.3978L58.2134 98.5936V92.8618C58.2134 92.2097 57.4146 91.6809 56.4293 91.6809C55.4441 91.6809 54.6452 92.2097 54.6452 92.8618V97.2299L52.5406 96.4257V90.6938C52.5406 90.0415 51.7417 89.5128 50.7565 89.5128C49.7712 89.5128 48.9724 90.0415 48.9724 90.6938V95.0621L46.8677 94.2577V88.5268C46.8677 87.8747 46.0688 87.3459 45.0836 87.3459C44.0983 87.3459 43.2995 87.8747 43.2995 88.5268V92.8943L41.1948 92.09V86.3587C41.1948 85.7065 40.3961 85.1778 39.4107 85.1778C38.4253 85.1778 37.6266 85.7065 37.6266 86.3587V90.7264L34.9068 89.687ZM83.7398 91.6994C83.7396 92.1212 83.3996 92.5111 82.8476 92.722C82.2958 92.933 81.6157 92.9331 81.0637 92.7223L71.1378 88.9282C70.5856 88.7171 70.2455 88.3272 70.2457 87.9053V82.3132C70.2455 81.8912 70.5856 81.5013 71.1376 81.2904C71.6896 81.0794 72.3697 81.0794 72.9219 81.2903L82.8478 85.0844C83.3998 85.2955 83.74 85.6854 83.7398 86.1073V91.6994ZM73.8136 87.2233L80.1722 89.6536V86.7887L73.8136 84.3596V87.2233ZM87.2418 99.0928C87.3694 99.0323 87.4913 98.9665 87.6062 98.8958C87.667 98.875 87.7582 98.8439 87.7801 98.8355L98.7356 94.6498V99.0246C98.8063 99.4889 98.6228 99.9547 98.2188 100.337L97.8245 100.487C97.775 100.502 97.7269 100.518 97.6799 100.537L85.158 105.327V99.3899C85.2394 99.3932 85.323 99.4134 85.4037 99.4134C85.5398 99.4069 85.6752 99.3955 85.8094 99.3794C85.829 99.3797 85.8456 99.3868 85.8654 99.3868C86.1871 99.387 86.5027 99.3292 86.7783 99.2196L86.785 99.217C86.9414 99.1827 87.0941 99.1412 87.2418 99.0928Z" fill="#2EFF54"/>
</svg>
